<?xml version="1.0" encoding="UTF-8" standalone="no"?>
<!-- Created with Inkscape (http://www.inkscape.org/) -->

<svg
   xmlns:dc="http://purl.org/dc/elements/1.1/"
   xmlns:cc="http://creativecommons.org/ns#"
   xmlns:rdf="http://www.w3.org/1999/02/22-rdf-syntax-ns#"
   xmlns:svg="http://www.w3.org/2000/svg"
   xmlns="http://www.w3.org/2000/svg"
   xmlns:sodipodi="http://sodipodi.sourceforge.net/DTD/sodipodi-0.dtd"
   xmlns:inkscape="http://www.inkscape.org/namespaces/inkscape"
   width="744.09448819"
   height="1052.3622047"
   id="svg2"
   version="1.1"
   inkscape:version="0.48.3.1 r9886"
   sodipodi:docname="owncloudnews.svg">
  <defs
     id="defs4" />
  <sodipodi:namedview
     id="base"
     pagecolor="#ffffff"
     bordercolor="#666666"
     borderopacity="1.0"
     inkscape:pageopacity="0.0"
     inkscape:pageshadow="2"
     inkscape:zoom="0.7"
     inkscape:cx="273.14371"
     inkscape:cy="706.71605"
     inkscape:document-units="px"
     inkscape:current-layer="layer1"
     showgrid="false"
     inkscape:window-width="1680"
     inkscape:window-height="1001"
     inkscape:window-x="0"
     inkscape:window-y="0"
     inkscape:window-maximized="1" />
  <metadata
     id="metadata7">
    <rdf:RDF>
      <cc:Work
         rdf:about="">
        <dc:format>image/svg+xml</dc:format>
        <dc:type
           rdf:resource="http://purl.org/dc/dcmitype/StillImage" />
        <dc:title></dc:title>
      </cc:Work>
    </rdf:RDF>
  </metadata>
  <g
     inkscape:label="Layer 1"
     inkscape:groupmode="layer"
     id="layer1">
    <rect
       style="fill:#ececec;fill-opacity:1;stroke:none"
       id="rect3148"
       width="860.04291"
       height="303.57144"
       x="-91.807159"
       y="300.93362"
       inkscape:export-xdpi="90"
       inkscape:export-ydpi="90"
       inkscape:export-filename="/home/ikacikac/WORK/owncloud/news-mobile/www/images/owncloudnews-logo-transparent-navy.png" />
    <path
       style="fill:#ff00ff;fill-opacity:1;stroke:none"
       d=""
       id="path3029"
       inkscape:connector-curvature="0"
       inkscape:export-filename="/home/ikacikac/WORK/owncloud/news-mobile/www/images/owncloudnews-logo-transparent-white.png"
       inkscape:export-xdpi="90"
       inkscape:export-ydpi="90" />
    <path
       style="fill:#ff00ff;fill-opacity:1;stroke:none"
       d=""
       id="path3031"
       inkscape:connector-curvature="0"
       inkscape:export-filename="/home/ikacikac/WORK/owncloud/news-mobile/www/images/owncloudnews-logo-transparent-white.png"
       inkscape:export-xdpi="90"
       inkscape:export-ydpi="90" />
    <g
       id="g3150"
       transform="translate(-3.7928361,5.4860336)"
       style="fill:#365e8a;fill-opacity:1">
      <path
         inkscape:export-ydpi="90"
         inkscape:export-xdpi="90"
         inkscape:export-filename="/home/ikacikac/WORK/owncloud/news-mobile/www/images/owncloudnews-logo-transparent-white.png"
         inkscape:connector-curvature="0"
         id="path3011"
         d="m 319.92346,485.38179 c -16.50279,-2.20774 -31.68432,-14.19609 -38.54328,-30.43633 -7.57295,-17.9308 -3.44036,-37.66707 10.90457,-52.07755 10.09457,-10.14069 22.80381,-15.1338 36.71861,-14.4257 12.93374,0.65816 21.72916,4.86847 32.30473,15.46404 7.53728,7.55152 11.50669,14.86652 13.22338,24.36856 1.91816,10.61718 0.62579,19.1677 -4.52909,29.96522 -2.72381,5.70536 -4.17769,7.7054 -9.38711,12.91356 -4.92956,4.92837 -7.38013,6.7586 -12.23555,9.13828 -9.46766,4.64016 -19.0313,6.35079 -28.45626,5.08992 z"
         style="fill:#365e8a;fill-opacity:1;stroke:none" />
      <path
         inkscape:export-ydpi="90"
         inkscape:export-xdpi="90"
         inkscape:export-filename="/home/ikacikac/WORK/owncloud/news-mobile/www/images/owncloudnews-logo-transparent-white.png"
         inkscape:connector-curvature="0"
         id="path3015"
         d="m 316.95114,484.42399 c -16.64628,-4.00741 -30.26619,-16.18566 -36.24136,-32.40521 -2.1912,-5.94801 -3.02575,-18.49875 -1.63156,-24.53688 3.50312,-15.17173 15.63855,-29.49801 29.88327,-35.27822 6.42316,-2.60638 12.213,-3.45542 20.7019,-3.03579 12.31673,0.60885 20.63361,4.52651 30.45106,14.34396 10.16504,10.16504 14.67272,20.40587 14.67272,33.33439 0,7.18106 -1.50314,13.12345 -5.34375,21.1255 -2.67281,5.5689 -4.19604,7.65989 -9.29288,12.75674 -4.90397,4.90397 -7.28257,6.67037 -12.16348,9.03286 -3.33708,1.61524 -7.74782,3.39361 -9.80166,3.95196 -5.42499,1.47478 -16.5181,1.84605 -21.23426,0.71069 z"
         style="fill:#365e8a;fill-opacity:1;stroke:none" />
      <path
         inkscape:export-ydpi="90"
         inkscape:export-xdpi="90"
         inkscape:export-filename="/home/ikacikac/WORK/owncloud/news-mobile/www/images/owncloudnews-logo-transparent-white.png"
         inkscape:connector-curvature="0"
         id="path3017"
         d="m 283.07554,395.95338 c -6.60316,-13.54218 -3.96564,-28.56549 6.91862,-39.40833 13.47185,-13.42059 33.80706,-13.83863 47.40887,-0.97461 7.65202,7.23697 10.97669,14.9869 10.97669,25.58712 0,5.85986 -0.12298,6.46145 -1.25,6.11518 -9.9228,-3.04872 -23.48799,-4.04362 -31.75049,-2.32865 -9.04699,1.87781 -16.43389,5.71783 -24.8991,12.94361 -2.09041,1.78434 -4.04347,3.24425 -4.34013,3.24425 -0.29667,0 -1.67567,-2.33035 -3.06446,-5.17857 z"
         style="fill:#365e8a;fill-opacity:1;stroke:none" />
      <path
         inkscape:export-ydpi="90"
         inkscape:export-xdpi="90"
         inkscape:export-filename="/home/ikacikac/WORK/owncloud/news-mobile/www/images/owncloudnews-logo-transparent-white.png"
         inkscape:connector-curvature="0"
         id="path3019"
         d="m 245.35059,451.14861 c -7.31317,-8.08131 -10.25274,-16.63067 -9.63121,-28.0111 0.33346,-6.1057 0.69384,-7.58141 3.05262,-12.5 3.3018,-6.88501 11.40859,-15.37412 17.50161,-18.32699 4.31998,-2.0936 15.45634,-4.54753 17.34627,-3.82229 0.64778,0.24857 2.44719,3.19958 3.99868,6.55779 1.5515,3.35821 3.48089,7.0327 4.28753,8.16552 l 1.46663,2.05969 -2.84765,4.87304 c -4.83489,8.27374 -7.1293,17.3708 -7.13996,28.30911 l -0.005,5.53572 -2.67857,0.008 c -6.68326,0.0211 -14.4143,3.74816 -18.56462,8.9497 -1.0841,1.35869 -2.18519,2.47036 -2.44687,2.47037 -0.26169,10e-6 -2.21426,-1.92106 -4.33906,-4.26904 l 0,0 z"
         style="fill:#365e8a;fill-opacity:1;stroke:none" />
      <path
         inkscape:export-ydpi="90"
         inkscape:export-xdpi="90"
         inkscape:export-filename="/home/ikacikac/WORK/owncloud/news-mobile/www/images/owncloudnews-logo-transparent-white.png"
         inkscape:connector-curvature="0"
         id="path3021"
         d="m 251.23831,385.06571 c -2.70075,-9.64612 3.42082,-19.94692 12.99698,-21.87008 4.43925,-0.89153 9.64281,-0.40134 11.69884,1.10207 1.27707,0.93382 1.27882,1.22062 0.0554,9.07784 -1.75617,11.27851 -1.15107,10.33923 -7.01152,10.8839 -2.79615,0.25987 -7.39345,1.26964 -10.21622,2.24393 -2.82277,0.9743 -5.46816,1.77144 -5.87864,1.77144 -0.41048,0 -1.15065,-1.44409 -1.64482,-3.2091 z"
         style="fill:#365e8a;fill-opacity:1;stroke:none" />
      <path
         inkscape:export-ydpi="90"
         inkscape:export-xdpi="90"
         inkscape:export-filename="/home/ikacikac/WORK/owncloud/news-mobile/www/images/owncloudnews-logo-transparent-white.png"
         inkscape:connector-curvature="0"
         id="path3023"
         d="m 224.90175,485.0312 c -17.99188,-3.90377 -30.23453,-20.1145 -28.40564,-37.61245 1.14014,-10.90821 8.73537,-22.08447 18.36271,-27.02039 3.17809,-1.62941 11.02333,-4.12137 13.87804,-4.40822 l 2.14285,-0.21533 0.0762,8.21429 c 0.12073,13.02541 2.98348,21.25913 10.43812,30.02175 5.75563,6.7655 5.73563,6.72175 6.33802,13.86131 0.30975,3.67114 1.04576,7.82978 1.63559,9.24142 1.02118,2.44402 0.9976,2.61935 -0.49345,3.67007 -2.13628,1.50539 -11.48557,4.36094 -15.85157,4.84152 -1.97275,0.21715 -5.60787,-0.0487 -8.12082,-0.59397 z"
         style="fill:#365e8a;fill-opacity:1;stroke:none" />
      <path
         inkscape:export-ydpi="90"
         inkscape:export-xdpi="90"
         inkscape:export-filename="/home/ikacikac/WORK/owncloud/news-mobile/www/images/owncloudnews-logo-transparent-white.png"
         inkscape:connector-curvature="0"
         id="path3025"
         d="m 266.17725,485.50793 c -5.33096,-1.12673 -10.34026,-5.43711 -12.81026,-11.0229 -5.24349,-11.85791 3.60257,-25.46665 16.56855,-25.48895 l 4.05582,-0.007 1.4706,3.93054 c 2.36018,6.30814 5.46375,12.01129 9.28044,17.05384 l 3.55846,4.70138 -2.80432,3.54773 c -4.94791,6.25957 -11.85282,8.86343 -19.31929,7.28534 z"
         style="fill:#365e8a;fill-opacity:1;stroke:none" />
      <path
         inkscape:export-ydpi="90"
         inkscape:export-xdpi="90"
         inkscape:export-filename="/home/ikacikac/WORK/owncloud/news-mobile/www/images/owncloudnews-logo-transparent-white.png"
         inkscape:connector-curvature="0"
         id="path3027"
         d="m 369.63226,405.65858 c -4.52459,-5.65462 -9.67231,-10.60346 -14.02761,-13.48567 l -3.05838,-2.02393 0.50152,-7.54423 c 0.27584,-4.14932 0.6223,-7.67638 0.76992,-7.8379 0.75723,-0.82854 11.29662,1.81807 15.85381,3.98115 9.66292,4.58651 18.31552,15.40922 19.19864,24.01372 l 0.38256,3.72738 -6.32936,1.56463 c -3.48115,0.86055 -7.0165,1.77254 -7.85633,2.02663 -1.26223,0.3819 -2.20452,-0.38476 -5.43477,-4.42178 l 0,0 z"
         style="fill:#365e8a;fill-opacity:1;stroke:none" />
      <path
         inkscape:export-ydpi="90"
         inkscape:export-xdpi="90"
         inkscape:export-filename="/home/ikacikac/WORK/owncloud/news-mobile/www/images/owncloudnews-logo-transparent-white.png"
         inkscape:connector-curvature="0"
         id="path3033"
         d="m 383.67478,485.54681 c -7.03225,-2.08978 -16.71045,-7.91739 -17.78071,-10.70644 -0.2234,-0.58218 0.83411,-2.67542 2.39827,-4.74714 3.64682,-4.83017 7.39643,-12.33715 9.48621,-18.99204 2.37469,-7.56221 2.33937,-20.55428 -0.0794,-29.19484 l -1.68274,-6.01132 1.56493,-1.2672 c 0.86071,-0.69697 4.01241,-1.81172 7.00378,-2.47724 18.17431,-4.0434 35.9653,5.68658 43.71359,23.90716 1.50077,3.52915 1.6182,4.70438 1.3918,13.92857 l -0.24726,10.07421 -2.78986,5.22948 c -7.00986,13.13968 -18.10879,20.30814 -32.82018,21.19754 -4.34837,0.26289 -6.9048,0.0261 -10.15845,-0.94074 l 0,0 z"
         style="fill:#365e8a;fill-opacity:1;stroke:none" />
      <path
         inkscape:export-ydpi="90"
         inkscape:export-xdpi="90"
         inkscape:export-filename="/home/ikacikac/WORK/owncloud/news-mobile/www/images/owncloudnews-logo-transparent-white.png"
         inkscape:connector-curvature="0"
         id="path3035"
         d="m 432.19382,483.00735 c -3.73203,-1.22141 -7.38553,-3.78397 -7.38553,-5.1802 0,-0.58558 0.93769,-2.25119 2.08376,-3.70137 3.53612,-4.4744 7.01603,-14.26005 8.2552,-23.21391 0.55959,-4.04338 1.97281,-4.91109 6.38425,-3.9199 8.61382,1.93539 14.34288,8.19923 15.21337,16.63345 1.34507,13.03254 -11.92992,23.51254 -24.55105,19.38193 z"
         style="fill:#365e8a;fill-opacity:1;stroke:none" />
      <path
         sodipodi:nodetypes="cssccccccssccccsscssssscc"
         inkscape:export-ydpi="90"
         inkscape:export-xdpi="90"
         inkscape:export-filename="/home/ikacikac/WORK/owncloud/news-mobile/www/images/owncloudnews-logo-transparent-white.png"
         inkscape:connector-curvature="0"
         id="path3037"
         d="m 394.33887,546.9451 c -8.35869,-2.88867 -14.85808,-11.63842 -15.71605,-21.15762 -0.54879,-6.0887 1.63371,-11.63924 6.47389,-16.46448 6.56872,-6.54844 12.12499,-8.18984 27.74729,-8.19694 l 9.10714,-0.004 c 0,-12.61905 -0.50511,-21.48398 0.69445,-19.51895 l 1.56406,1.51523 1.62719,1.57836 c 1.55779,0.85631 0.32493,11.21875 0.21023,25.35393 -0.19584,24.44828 -0.2366,25.07453 -1.84718,28.37736 -1.76433,3.61812 -5.55197,7.05799 -9.66284,8.77562 -3.67841,1.53694 -15.43856,1.3865 -20.19821,-0.25838 l 0,0 z m 19.33229,-3.06257 c 3.54499,-0.93163 6.49797,-3.87097 7.49438,-7.45975 0.44213,-1.59244 0.77936,-9.04139 0.78162,-17.26514 l 0.004,-14.46429 -7.69731,0 c -9.17968,0 -18.92242,1.12137 -21.55055,2.48043 -2.6961,1.39421 -7.80418,7.13261 -9.11635,10.24128 -1.60332,3.79844 -1.45729,11.21818 0.29893,15.1884 2.91082,6.58039 8.28904,10.88194 15.15132,12.11814 3.65894,0.65913 10.4049,0.27234 14.63398,-0.83907 z"
         style="fill:#365e8a;fill-opacity:1;stroke:none" />
      <path
         inkscape:export-ydpi="90"
         inkscape:export-xdpi="90"
         inkscape:export-filename="/home/ikacikac/WORK/owncloud/news-mobile/www/images/owncloudnews-logo-transparent-white.png"
         inkscape:connector-curvature="0"
         id="path3039"
         d="m 336.23223,547.64247 c -5.51026,-1.67615 -12.08966,-7.42646 -14.35388,-12.54511 -0.771,-1.74297 -1.75089,-5.99212 -2.17754,-9.44256 -0.76275,-6.1687 -0.49542,-21.26586 0.39229,-22.15357 1.24099,-1.24099 1.89074,1.92843 2.56145,12.49434 1.02909,16.21182 1.5435,18.20064 5.81145,22.46859 4.5962,4.5962 8.32342,6.23887 14.19943,6.25801 3.65941,0.0119 5.55066,-0.41876 8.92857,-2.03325 9.22781,-4.41047 11.72782,-10.56847 11.78229,-29.02192 0.0257,-8.70258 0.63117,-11.44369 2.18465,-9.89021 0.5674,0.5674 0.7378,4.87069 0.56546,14.27975 -0.22547,12.30956 -0.38726,13.75295 -1.88159,16.78618 -2.40963,4.89115 -8.14147,10.29006 -12.75865,12.01756 -3.98417,1.49067 -11.63507,1.88299 -15.25393,0.78219 l 0,0 z"
         style="fill:#365e8a;fill-opacity:1;stroke:none" />
      <path
         inkscape:export-ydpi="90"
         inkscape:export-xdpi="90"
         inkscape:export-filename="/home/ikacikac/WORK/owncloud/news-mobile/www/images/owncloudnews-logo-transparent-white.png"
         inkscape:connector-curvature="0"
         id="path3041"
         d="m 278.37972,547.8565 c -9.1603,-3.00861 -15.9538,-10.51066 -16.92219,-18.68714 -0.49728,-4.19875 0.80623,-11.3844 2.75985,-15.21381 6.8147,-13.35792 25.8379,-16.03291 36.70892,-5.16189 11.09484,11.09484 8.70692,28.52962 -5.03828,36.78565 -3.6278,2.17903 -4.73514,2.47629 -9.90354,2.65852 -3.20048,0.11284 -6.62262,-0.0588 -7.60476,-0.38133 z m 16.06947,-5.40592 c 4.19141,-2.45633 7.90114,-6.96106 8.85625,-10.75415 3.52167,-13.9858 -5.20334,-26.15976 -18.74855,-26.15976 -13.97872,0 -23.21205,13.24159 -18.62353,26.70814 1.38497,4.06467 5.78669,9.18962 9.39186,10.935 5.6605,2.74044 13.72838,2.4328 19.12397,-0.72923 z"
         style="fill:#365e8a;fill-opacity:1;stroke:none" />
      <path
         sodipodi:nodetypes="ssssssscs"
         inkscape:export-ydpi="90"
         inkscape:export-xdpi="90"
         inkscape:export-filename="/home/ikacikac/WORK/owncloud/news-mobile/www/images/owncloudnews-logo-transparent-white.png"
         inkscape:connector-curvature="0"
         id="path3043"
         d="m 246.95624,547.16182 c -3.26201,-1.41459 -5.50283,-3.55858 -7.39604,-7.07644 -1.48741,-2.76384 -1.54494,-3.77517 -1.76151,-30.96749 -0.18293,-22.96877 0.12627,-22.518 0.89286,-22.26502 2.22708,0.73496 2.52417,-1.78071 2.6087,12.16108 0.0464,7.66071 0.29226,19.61091 0.54624,26.55599 0.53741,14.6949 0.81428,15.38251 7.49381,18.61027 4.37779,2.1155 5.40401,4.13888 2.07513,4.09149 -1.08036,-0.0154 -3.08699,-0.51482 -4.45919,-1.10988 z"
         style="fill:#365e8a;fill-opacity:1;stroke:none" />
      <path
         sodipodi:nodetypes="csssssssccc"
         inkscape:export-ydpi="90"
         inkscape:export-xdpi="90"
         inkscape:export-filename="/home/ikacikac/WORK/owncloud/news-mobile/www/images/owncloudnews-logo-transparent-white.png"
         inkscape:connector-curvature="0"
         id="path3045"
         d="m 212.9848,547.51737 c -9.58822,-3.05787 -18.09354,-10.14842 -22.81074,-19.0164 -2.84589,-5.35005 -2.84875,-5.36369 -3.10494,-14.78369 -0.3011,-11.07137 0.37527,-13.81158 5.31484,-21.53216 3.17383,-4.96073 14.89283,-14.89208 16.87257,-11.48376 0.35598,0.61285 -10.0592,7.95975 -11.77149,10.07096 -12.45127,15.35195 -9.2303,38.15168 6.85886,48.55061 2.45377,1.58595 7.29133,3.69489 11.34448,4.94564 4.41994,1.36395 6.96192,2.49837 6.78734,3.02902 -0.3919,1.19126 -6.03503,1.32194 -9.49092,0.21978 z"
         style="fill:#365e8a;fill-opacity:1;stroke:none" />
      <path
         inkscape:export-ydpi="90"
         inkscape:export-xdpi="90"
         inkscape:export-filename="/home/ikacikac/WORK/owncloud/news-mobile/www/images/owncloudnews-logo-transparent-white.png"
         inkscape:connector-curvature="0"
         id="path3047"
         d="m 126.96779,547.5916 c -0.70748,-0.85246 -0.84337,-4.06808 -0.58236,-13.78028 0.31842,-11.8482 0.45925,-12.89956 2.17534,-16.23978 5.48873,-10.68336 14.92622,-15.93183 25.06201,-13.93774 8.01053,1.57598 13.84648,5.8348 17.27916,12.60957 l 2.12063,4.18532 0,13.55973 c 0,12.34541 -0.11194,13.58147 -1.25,13.80238 -1.10352,0.2142 -1.25198,-0.41219 -1.26691,-5.34545 -0.035,-11.55171 -1.24225,-22.28711 -2.8889,-25.68862 -3.02659,-6.25211 -12.13098,-10.90955 -19.43262,-9.94095 -7.1674,0.95079 -13.41843,5.65518 -16.36471,12.31573 -1.03448,2.33861 -1.5283,6.05619 -2.09222,15.75058 -0.40597,6.9792 -0.98529,12.94415 -1.28737,13.25544 -0.30208,0.31129 -0.96451,0.0656 -1.47205,-0.54593 z"
         style="fill:#365e8a;fill-opacity:1;stroke:none" />
      <path
         inkscape:export-ydpi="90"
         inkscape:export-xdpi="90"
         inkscape:export-filename="/home/ikacikac/WORK/owncloud/news-mobile/www/images/owncloudnews-logo-transparent-white.png"
         inkscape:connector-curvature="0"
         id="path3049"
         d="m 63.21137,547.24436 c -3.3325,-1.73845 -4.70591,-2.89811 -7.30555,-6.16852 l -2.51224,-3.16046 0.004,-16.42857 c 0.002,-9.03572 0.28457,-16.87154 0.62749,-17.41294 1.42333,-2.24717 2.21263,0.18804 2.2427,6.91938 0.0621,13.90387 1.15259,25.65627 2.61253,28.15603 3.08949,5.28994 10.71656,7.26093 16.64226,4.3007 4.74712,-2.37145 5.29838,-4.69177 5.5998,-23.57031 l 0.26515,-16.60715 1.99219,0 1.9922,0 0.26515,16.60715 c 0.30142,18.87854 0.85268,21.19886 5.5998,23.57031 3.88471,1.94064 9.76742,1.66918 13.1144,-0.60515 4.34329,-2.95134 4.867,-5.05508 5.74695,-23.08554 0.5527,-11.32491 1.0352,-16.0974 1.64802,-16.30074 1.49081,-0.49466 1.76734,2.81139 1.5181,18.15006 -0.23764,14.62446 -0.27417,14.93302 -2.14232,18.09248 -3.71355,6.28047 -7.32877,8.57143 -13.52602,8.57143 -4.42291,0 -7.53334,-1.27146 -11.18825,-4.57345 -1.56421,-1.41317 -3.06689,-2.5694 -3.33928,-2.5694 -0.27239,0 -1.31851,0.97838 -2.32471,2.17417 -2.76588,3.28706 -6.64366,4.96939 -11.44272,4.96428 -2.27458,-0.002 -5.01493,-0.46311 -6.08966,-1.02376 z"
         style="fill:#365e8a;fill-opacity:1;stroke:none" />
      <path
         inkscape:export-ydpi="90"
         inkscape:export-xdpi="90"
         inkscape:export-filename="/home/ikacikac/WORK/owncloud/news-mobile/www/images/owncloudnews-logo-transparent-white.png"
         inkscape:connector-curvature="0"
         id="path3051"
         d="m 13.721803,548.03632 c -11.2343,-1.59519 -19.6278,-11.62824 -19.6278,-23.46182 0,-6.39822 1.57731,-10.74549 5.46943,-15.07447 7.10527,-7.90276 18.143,-10.47697 26.78785,-6.24744 4.69257,2.29586 10.12212,7.81699 12.11269,12.31701 7.297807,16.49791 -6.8119,35.01269 -24.74217,32.46672 z m 12.13423,-5.34988 c 6.28632,-3.06011 10.42657,-9.20621 10.9587,-16.26791 0.60325,-8.00558 -3.06346,-14.96368 -9.82294,-18.64039 -9.79262,-5.32654 -22.4593,-1.77398 -27.33147,7.66552 -2.01794,3.90962 -2.59497,13.27625 -1.04035,16.88754 1.6996,3.94805 5.8633,8.27933 9.94001,10.34005 3.26721,1.65154 4.4359,1.86262 9.10545,1.6446 3.3929,-0.15841 6.39605,-0.75585 8.1906,-1.62941 l 0,0 z"
         style="fill:#365e8a;fill-opacity:1;stroke:none" />
      <path
         inkscape:export-ydpi="90"
         inkscape:export-xdpi="90"
         inkscape:export-filename="/home/ikacikac/WORK/owncloud/news-mobile/www/images/owncloudnews-logo-transparent-white.png"
         inkscape:connector-curvature="0"
         id="path3047-1"
         d="m 466.21661,547.5916 c -0.70748,-0.85246 -0.84337,-4.06808 -0.58236,-13.78028 0.31842,-11.8482 0.45925,-12.89956 2.17534,-16.23978 5.48873,-10.68337 14.92622,-15.93184 25.06201,-13.93775 8.01053,1.57598 13.84648,5.8348 17.27916,12.60958 l 2.12063,4.18532 0,13.55973 c 0,12.34541 -0.11194,13.58147 -1.25,13.80238 -1.10352,0.2142 -1.25198,-0.41219 -1.26691,-5.34545 -0.035,-11.55171 -1.24225,-22.28711 -2.8889,-25.68862 -3.02659,-6.25212 -12.13098,-10.90956 -19.43262,-9.94096 -7.1674,0.95079 -13.41843,5.65518 -16.36471,12.31574 -1.03448,2.33861 -1.5283,6.05619 -2.09222,15.75058 -0.40597,6.9792 -0.98529,12.94415 -1.28737,13.25544 -0.30208,0.31129 -0.96451,0.0656 -1.47205,-0.54593 z"
         style="fill:#365e8a;fill-opacity:1;stroke:none" />
      <path
         inkscape:export-ydpi="90"
         inkscape:export-xdpi="90"
         inkscape:export-filename="/home/ikacikac/WORK/owncloud/news-mobile/www/images/owncloudnews-logo-transparent-white.png"
         inkscape:connector-curvature="0"
         id="path3049-4"
         d="m 591.31583,547.24436 c -3.3325,-1.73845 -4.70591,-2.89811 -7.30555,-6.16852 l -2.51224,-3.16046 0.004,-16.42857 c 0.002,-9.03572 0.28457,-16.87154 0.62749,-17.41294 1.42333,-2.24717 2.21263,0.18804 2.2427,6.91938 0.0621,13.90387 1.15259,25.65627 2.61253,28.15603 3.08949,5.28994 10.71656,7.26093 16.64226,4.3007 4.74712,-2.37145 5.29838,-4.69177 5.5998,-23.57031 l 0.26515,-16.60715 1.99219,0 1.9922,0 0.26515,16.60715 c 0.30142,18.87854 0.85268,21.19886 5.5998,23.57031 3.88471,1.94064 9.76742,1.66918 13.1144,-0.60515 4.34329,-2.95134 4.867,-5.05508 5.74695,-23.08554 0.5527,-11.32491 1.0352,-16.0974 1.64802,-16.30074 1.49081,-0.49466 1.76734,2.81139 1.5181,18.15006 -0.23764,14.62446 -0.27417,14.93302 -2.14232,18.09248 -3.71355,6.28047 -7.32877,8.57143 -13.52602,8.57143 -4.42291,0 -7.53334,-1.27146 -11.18825,-4.57345 -1.56421,-1.41317 -3.06689,-2.5694 -3.33928,-2.5694 -0.27239,0 -1.31851,0.97838 -2.32471,2.17417 -2.76588,3.28706 -6.64366,4.96939 -11.44272,4.96428 -2.27458,-0.002 -5.01493,-0.46311 -6.08966,-1.02376 z"
         style="fill:#365e8a;fill-opacity:1;stroke:none" />
      <path
         inkscape:export-ydpi="90"
         inkscape:export-xdpi="90"
         inkscape:export-filename="/home/ikacikac/WORK/owncloud/news-mobile/www/images/owncloudnews-logo-transparent-white.png"
         sodipodi:nodetypes="cccsssscccccccsssccc"
         inkscape:connector-curvature="0"
         id="path3049-4-8"
         d="m 656.3463,511.24017 c 1.32881,-2.54725 2.21521,-3.59704 4.715,-5.58411 4.22053,-2.40105 9.99178,-1.91846 14.97318,-1.91727 6.90659,0.002 12.89602,0.21751 13.30985,0.47963 1.71766,1.08794 -1.03659,2.40555 -6.1818,2.42853 -10.62763,0.0475 -18.7179,0.16671 -20.62863,1.28264 -4.04345,2.3615 -4.98179,8.19137 -2.7191,12.72077 1.81266,3.62853 3.14429,3.35541 17.57439,3.58581 2.91571,0.24192 7.83257,-0.72944 10.61049,1.8517 0.95965,1.21371 2.12427,1.61316 1.89015,11.13248 -0.46992,8.07148 -3.26109,9.04866 -4.75808,10.84629 -5.29656,0.15326 -31.92806,0.95484 -29.25567,-2.14724 1.99864,-1.7053 5.08006,-0.35032 15.60643,-0.19883 3.85764,0.0661 10.78445,1.65897 14.7026,-3.67588 1.40795,-3.59562 1.64855,-10.49096 -0.35308,-13.73248 -1.68036,-2.72125 -10.90365,-1.04497 -18.2134,-1.84028 -5.20613,-0.56644 -7.88013,-1.51076 -8.26033,-1.83068 -2.51252,-2.11415 -3.79843,-5.07819 -3.79453,-8.74642 0.002,-1.73861 0.35399,-3.83324 0.78253,-4.65473 z"
         style="fill:#365e8a;fill-opacity:1;stroke:none" />
      <path
         inkscape:export-ydpi="90"
         inkscape:export-xdpi="90"
         inkscape:export-filename="/home/ikacikac/WORK/owncloud/news-mobile/www/images/owncloudnews-logo-transparent-white.png"
         sodipodi:nodetypes="csccsssccsscsssccc"
         inkscape:connector-curvature="0"
         id="path3041-8"
         d="m 569.30215,520.20255 c 2.13609,-0.0522 -6.67983,-14.53195 -18.60938,-14.66588 -9.0502,-0.1016 -20.93364,13.09571 -18.89927,13.38799 m -0.72045,3.49874 c -1.01257,-0.044 -0.14692,6.46656 0.99619,9.82141 1.38497,4.06467 5.78669,9.18962 9.39186,10.935 5.6605,2.74044 14.20387,3.13127 19.12397,-0.72923 4.32534,-3.39383 8.70471,-10.80034 9.52589,-10.57558 l 2.36745,0.22342 c 1.97522,0.59666 -4.96255,10.18215 -10.45451,13.48089 -3.6278,2.17903 -4.73514,2.47629 -9.90354,2.65852 -3.20048,0.11284 -6.62262,-0.0588 -7.60476,-0.38133 -9.1603,-3.00861 -15.9538,-10.51066 -16.92219,-18.68714 -0.49728,-4.19875 0.80623,-11.3844 2.75985,-15.21381 6.8147,-13.35792 25.8379,-16.03291 36.70892,-5.16189 4.66161,4.66161 6.2734,12.13886 5.70732,14.09319 l -0.57714,0.59329 -2.50997,0.0784"
         style="fill:#365e8a;fill-opacity:1;stroke:none" />
    </g>
    <path
       style="fill:#365e8a;fill-opacity:0;stroke:none"
       d="m -91.713432,452.50327 0,-151.42857 430.000002,0 430,0 0,151.42857 0,151.42857 -430,0 -430.000002,0 0,-151.42857 z M 26.431781,550.1796 c 7.548254,-5.63558 9.71193,-10.05101 9.71193,-19.81918 0,-10.18325 -2.377083,-14.67272 -10.84564,-20.48358 -4.064296,-2.7888 -6.228901,-3.24552 -13.102128,-2.7646 -14.1665133,0.99128 -21.7665176,9.02049 -21.7665176,22.99579 0,9.94203 3.3241986,16.19164 11.2693743,21.18681 5.8317529,3.66646 19.1316573,3.06675 24.7329813,-1.11524 l 0,0 z m 49.134259,0.79783 4.1491,-2.95443 4.1491,2.95443 c 2.6095,1.85813 6.3732,2.95441 10.142857,2.95441 4.911671,0 6.870643,-0.87688 10.850903,-4.85714 l 4.85714,-4.85714 0,-18 c 0,-9.9 -0.55331,-18 -1.22959,-18 -1.37197,0 -3.02042,11.57531 -3.05167,21.42857 -0.0314,9.91113 -2.35054,16.45139 -6.504626,18.34411 -5.151,2.34696 -8.394943,2.06285 -12.270143,-1.07462 -3.164214,-2.56185 -3.403686,-3.84143 -3.876586,-20.71429 -0.4509,-16.08789 -0.771571,-17.98377 -3.041828,-17.98377 -2.265657,0 -2.602186,1.93453 -3.1384,18.04086 -0.566657,17.02112 -0.7966,18.19957 -4.068014,20.8486 -2.556343,2.07 -4.763872,2.59737 -8.401486,2.00705 -8.154257,-1.32325 -9.047943,-3.25565 -10.432114,-22.55723 -1.179686,-16.45014 -1.732786,-19.66591 -3.133829,-18.22024 -0.317271,0.32739 -1.028814,8.30953 -1.5812,17.7381 l -1.004344,17.14286 5.221401,5.35714 c 4.522086,4.63966 6.091472,5.35714 11.717814,5.35714 4.277843,0 7.913358,-1.00895 10.645515,-2.95441 l 0,0 z m 49.88877,1.1687 c 0.0143,-0.98214 0.61799,-7.41766 1.34229,-14.30116 1.56773,-14.89917 4.39003,-19.74511 13.53338,-23.23698 7.63722,-2.91667 13.95369,-1.37613 19.92876,4.86051 3.29926,3.44369 3.97966,5.60644 4.5962,14.60983 1.00859,14.72833 1.91104,19.85351 3.49586,19.85351 2.33088,0 1.66515,-28.13064 -0.77752,-32.85424 -5.7349,-11.09006 -21.24824,-15.95521 -31.85935,-9.99143 -10.42963,5.86179 -12.35985,9.97123 -12.9114,27.48853 -0.32789,10.41407 0.017,15.35714 1.07142,15.35714 0.85525,0 1.56639,-0.80357 1.58036,-1.78571 l 0,0 z m 94.26033,1.03536 c 0,-0.41269 -4.66071,-2.8752 -10.35714,-5.47226 -11.61702,-5.29629 -18.67317,-12.19729 -20.98553,-20.52406 -3.57819,-12.88494 -0.73946,-22.68073 9.58101,-33.06181 8.29987,-8.34863 8.69465,-10.83832 1.06725,-6.7307 -6.0247,3.24451 -9.55576,7.02104 -13.44085,14.37517 -3.59991,6.81433 -4.12423,22.44047 -1.00355,29.90927 2.8694,6.86744 11.41154,15.81114 18.4098,19.27524 5.36545,2.65586 16.72901,4.17006 16.72901,2.22915 l 0,0 z m 30,-0.64153 c 0,-0.76554 -1.85067,-2.3489 -4.1126,-3.51859 -2.26193,-1.1697 -4.62651,-3.27548 -5.25463,-4.67954 -0.62811,-1.40407 -1.41248,-13.64213 -1.74304,-27.1957 -0.33056,-13.55357 -1.18026,-24.64286 -1.88823,-24.64286 -3.47444,0 -0.6169,-2.60573 4.55773,-4.15607 4.95013,-1.4831 5.73127,-2.2285 5.10251,-4.86898 -0.40833,-1.71479 -1.20623,-6.32643 -1.7731,-10.24809 -0.72438,-5.0113 -2.65591,-9.28289 -6.49948,-14.37367 -7.10066,-9.40476 -9.81773,-17.3913 -9.81773,-28.85824 l 0,-9.28868 -5.84539,0.93471 c -10.9614,1.7528 -19.536,7.85094 -26.29321,18.69939 -1.77746,2.85365 -2.84733,7.82665 -3.22704,15 -0.53565,10.11905 -0.29699,11.17625 4.18451,18.5369 6.50773,10.68863 15.47639,16.16315 27.76087,16.94536 l 9.13454,0.58164 0,26.86655 0,26.86654 4.3956,4.39561 c 4.16952,4.16952 11.31869,6.06673 11.31869,3.00372 l 0,0 z m 43.24343,-1.23663 c 7.39308,-4.87494 11.04228,-11.43913 11.04228,-19.86283 0,-12.52978 -5.76652,-20.2945 -17.37625,-23.39738 -12.7568,-3.40948 -24.9975,3.48295 -28.35952,15.96852 -3.04871,11.32203 0.21982,20.04485 10.00696,26.70592 6.09959,4.15134 18.82137,4.45321 24.68653,0.58577 z m 58.29703,-0.61977 c 9.37081,-6.31499 11.31668,-11.074 11.31668,-27.67726 0,-8.90678 -0.56818,-14.78874 -1.42857,-14.78874 -0.78571,0 -1.43998,1.125 -1.45396,2.5 -0.086,8.4793 -2.91217,27.66754 -4.43381,30.10406 -2.49243,3.99101 -11.50997,8.82562 -16.44959,8.81917 -4.92785,-0.007 -12.43505,-4.34445 -15.3242,-8.85503 -1.70091,-2.6555 -5.17458,-23.25207 -5.19155,-30.78249 -0.003,-0.98214 -0.718,-1.78571 -1.59063,-1.78571 -1.09906,0 -1.42214,4.80493 -1.05142,15.63634 0.59085,17.26206 1.97798,20.59066 11.19492,26.86366 6.53561,4.4481 17.78438,4.43244 24.41213,-0.034 l 0,0 z m 65.56887,-2.10886 5.34463,-5.35714 0.76928,-25 c 0.62469,-20.30044 0.38223,-25.61279 -1.28973,-28.25982 -3.10041,-4.90848 -4.79065,-2.52098 -4.79065,6.76688 l 0,8.33842 -11.78572,1.03899 c -14.2572,1.25686 -17.56625,2.40533 -23.54451,8.17159 -8.61313,8.30768 -9.4937,19.86821 -2.24113,29.42271 5.91141,7.78769 11.24199,10.22411 22.38229,10.23017 9.43745,0.006 10.01437,-0.19858 15.15554,-5.3518 l 0,0 z m 48.82651,-5.95406 c 1.52485,-16.8916 2.3704,-19.58855 7.57373,-24.15714 6.77212,-5.94598 12.03294,-6.80183 20.03963,-3.2601 8.26646,3.65664 10.44601,8.48263 11.67956,25.86094 0.50235,7.07713 1.3796,12.8675 1.94944,12.8675 1.59124,0 2.8218,-7.9361 2.8218,-18.19835 0,-15.62975 -8.53743,-25.89077 -22.54339,-27.09463 -8.32528,-0.71559 -14.7923,2.39458 -20.92647,10.06411 -4.17221,5.21652 -4.4114,6.2225 -4.87917,20.52112 -0.39626,12.11224 -0.11857,14.912 1.42857,14.39954 1.24815,-0.41344 2.24807,-4.26537 2.8563,-11.00299 l 0,0 z m 93.46639,8.38205 c 4.12547,-2.54969 10.59777,-10.67895 10.59777,-13.31089 0,-2.42833 -3.93493,-0.28564 -10.14779,5.52576 -5.66441,5.2984 -7.82524,6.42487 -12.29101,6.40751 -2.98009,-0.0114 -7.00619,-0.82453 -8.94689,-1.80653 -4.7507,-2.40388 -10.04288,-10.53654 -10.04288,-15.4332 l 0,-3.98111 20.71428,0.83929 20.71429,0.8393 0,-3.57852 c 0,-4.31747 -4.96281,-11.93813 -10.39569,-15.96308 -2.90424,-2.15165 -6.18425,-2.95232 -12.24262,-2.9885 -13.73925,-0.0822 -21.68275,7.26558 -23.4761,21.71515 -0.95729,7.7132 3.4423,16.91126 10.25424,21.43816 6.4887,4.31209 18.5364,4.45356 25.2624,0.29666 l 0,0 z m 43.84473,0.072 c 1.99774,-1.57143 4.07233,-2.85714 4.61018,-2.85714 0.53786,0 2.61245,1.28571 4.61019,2.85714 4.35048,3.4221 14.08661,3.82496 18.45714,0.76373 5.71389,-4.00217 7.64696,-10.81909 7.64696,-26.96674 0,-8.28132 -0.61037,-15.43417 -1.35639,-15.89523 -1.58935,-0.98229 -2.4636,3.99026 -3.63201,20.65831 -1.14183,16.28875 -5.14233,21.72247 -14.30052,19.42392 -6.72408,-1.68763 -7.85394,-4.36655 -7.85394,-18.62175 0,-15.51975 -1.0789,-22.21938 -3.57817,-22.21938 -1.28659,0 -2.08179,5.01628 -2.81764,17.77428 -0.56385,9.77586 -1.76829,18.79055 -2.67652,20.03263 -0.90823,1.24207 -3.91407,2.62552 -6.67964,3.07432 -10.33201,1.67664 -13.88254,-5.7854 -14.14374,-29.72549 -0.10557,-9.67174 -1.92159,-13.79134 -3.4938,-7.92538 -0.47145,1.75901 -0.86597,9.85178 -0.8767,17.98392 l -0.0195,14.78572 4.85714,4.85714 c 4.07341,4.07342 5.88639,4.85714 11.23591,4.85714 4.21565,0 7.61053,-0.9689 10.01105,-2.85714 l 0,0 z m 81.0781,0.66689 c 2.46005,-2.9642 3.50694,-15.28133 1.60143,-18.8418 -1.29865,-2.42656 -3.57453,-3.0364 -14.52989,-3.89343 -11.8821,-0.92952 -13.1244,-1.3111 -14.56549,-4.47393 -2.31244,-5.07527 0.3656,-9.9685 6.08139,-11.11166 2.52313,-0.50463 8.64777,-0.9175 13.61033,-0.9175 4.96256,0 9.40007,-0.61037 9.86113,-1.35638 1.28668,-2.0819 -8.4458,-3.38435 -18.9743,-2.53922 -7.9523,0.63833 -9.97959,1.36347 -12.72052,4.55 -4.31663,5.01837 -4.21793,11.37526 0.24593,15.8391 3.08644,3.08646 4.7635,3.5065 14,3.5065 12.06459,0 13.92207,1.17733 13.92207,8.82422 0,8.21291 -4.2059,10.35811 -17.80907,9.08338 -5.86123,-0.54924 -11.33387,-0.58014 -12.16144,-0.0687 -3.80407,2.35106 1.3302,3.58966 14.8799,3.58966 11.5019,0 15.14017,-0.48125 16.55853,-2.19026 l 0,3e-5 z M 272.97531,490.53636 c 2.52833,-1.0818 6.33409,-3.81703 8.45722,-6.07829 l 3.86025,-4.11137 -4.38594,-6.42171 c -2.41226,-3.53195 -5.68151,-9.47529 -7.265,-13.20743 -2.51283,-5.92256 -3.41794,-6.78572 -7.11556,-6.78572 -11.40108,0 -20.91353,11.19529 -18.85154,22.18659 1.11163,5.92551 8.7017,14.39899 13.76657,15.36886 5.87086,1.1242 6.87823,1.04114 11.534,-0.95093 z m 68.06819,-2.71474 c 10.91993,-4.02443 22.96117,-16.11952 27.339,-27.4612 5.03044,-13.03242 4.5544,-26.43996 -1.36573,-38.46545 -5.1921,-10.54665 -14.32852,-19.46954 -25.15877,-24.57079 -8.5932,-4.04756 -25.1492,-4.62977 -35.10266,-1.23443 -13.69996,4.67336 -27.89683,19.39318 -31.45741,32.61617 -4.239,15.74241 -0.0716,33.733 10.65088,45.97907 14.1666,16.17964 34.00367,20.90954 55.09469,13.13663 l 0,0 z m 59.2233,2.65922 c 9.00878,-2.71125 15.8356,-8.16947 21.71667,-17.36307 4.32791,-6.76561 4.87296,-8.70911 4.86057,-17.33158 -0.01,-7.16959 -0.89119,-11.59532 -3.36546,-16.90878 -3.99035,-8.56922 -14.26214,-18.07242 -22.05893,-20.4084 -7.55312,-2.26297 -19.31161,-2.12129 -25.11275,0.30259 l -4.74506,1.9826 1.96891,9.08882 c 3.05109,14.0844 1.44992,24.4578 -6.01412,38.96338 l -6.27603,12.1968 4.65765,3.55257 c 10.42379,7.9506 21.36862,9.83747 34.36855,5.92507 l 0,0 z m 43.07735,-3.10064 c 6.61708,-3.14 9.77053,-8.51761 9.77438,-16.66827 0.004,-8.1739 -3.45288,-13.51239 -11.13672,-17.19926 -7.88226,-3.78208 -10.35611,-2.3292 -12.3847,7.27352 -0.94643,4.48011 -3.23563,10.95877 -5.08708,14.39701 -4.30786,7.99984 -4.2335,9.61552 0.56225,12.21726 5.15887,2.79873 12.3481,2.79076 18.27187,-0.0203 l 0,3e-5 z M 250.87034,456.87492 c 2.90036,-2.30988 8.2511,-4.93852 11.89054,-5.84143 l 6.61716,-1.64166 1.41324,-11.07018 c 0.77752,-6.09053 3.12245,-14.87882 5.21297,-19.53713 l 3.79975,-8.46695 -4.43745,-8.19286 c -3.90982,-7.21872 -4.95701,-8.19287 -8.80725,-8.19287 -16.48627,0 -32.88623,15.2833 -34.93159,32.55311 -1.16104,9.80313 1.7043,20.44579 7.57449,28.13374 2.71124,3.5508 5.25921,6.45601 5.66215,6.45601 0.40293,0 3.10563,-1.8899 6.00599,-4.19978 z M 385.1567,409.31245 c 1.09838,-9.29069 -11.80736,-23.76644 -24.56702,-27.55565 -9.85275,-2.92595 -10.62528,-2.74918 -11.64075,2.66371 -1.62582,8.66638 -0.2986,11.32407 10.94145,21.90972 l 10.88955,10.25553 6.9676,-1.76919 c 5.89544,-1.49695 7.03555,-2.34391 7.40917,-5.50412 z m -95.99513,-6.95125 c 12.31018,-9.81474 23.2967,-12.83818 40.5699,-11.16467 5.88387,0.57006 11.66224,1.258 12.84081,1.52875 1.73409,0.39837 2.11902,-1.16767 2.01786,-8.2095 -0.15507,-10.79512 -4.42927,-19.19294 -13.14936,-25.83548 -24.20554,-18.4386 -58.398,0.45034 -55.65113,30.74335 0.73976,8.15814 4.25125,17.36534 6.62289,17.36534 0.65749,0 3.69456,-1.99251 6.74903,-4.42779 l 0,0 z m -29.01416,-10.74152 c 5.65512,-1.27169 10.46474,-2.47227 10.68807,-2.66796 0.22333,-0.19569 1.05765,-4.40184 1.85405,-9.34701 1.70195,-10.56815 1.09507,-11.33255 -9.02328,-11.36528 -9.43358,-0.0305 -15.35755,5.23953 -16.41272,14.60096 -0.72335,6.41747 0.0257,11.09145 1.77762,11.09145 0.45885,0 5.46116,-1.04047 11.11626,-2.31216 z"
       id="path3776"
       inkscape:connector-curvature="0" />
  </g>
</svg>
